<?xml version="1.0" encoding="UTF-8" standalone="no"?>
<!-- Created with Inkscape (http://www.inkscape.org/) -->

<svg
   xmlns:dc="http://purl.org/dc/elements/1.1/"
   xmlns:cc="http://creativecommons.org/ns#"
   xmlns:rdf="http://www.w3.org/1999/02/22-rdf-syntax-ns#"
   xmlns:svg="http://www.w3.org/2000/svg"
   xmlns="http://www.w3.org/2000/svg"
   xmlns:xlink="http://www.w3.org/1999/xlink"
   xmlns:sodipodi="http://sodipodi.sourceforge.net/DTD/sodipodi-0.dtd"
   xmlns:inkscape="http://www.inkscape.org/namespaces/inkscape"
   width="404"
   height="161"
   viewBox="0 0 106.89166 42.597918"
   version="1.1"
   id="svg8"
   inkscape:version="0.92.4 (5da689c313, 2019-01-14)"
   sodipodi:docname="logo.svg">
  <defs
     id="defs2">
    <linearGradient
       id="linearGradient843"
       spreadMethod="pad"
       gradientTransform="matrix(0,76.867584,76.867584,0,171.22636,190.91258)"
       gradientUnits="userSpaceOnUse"
       y2="0"
       x2="1"
       y1="0"
       x1="0">
      <stop
         id="stop837"
         offset="0"
         style="stop-opacity:1;stop-color:#ff6a13" />
      <stop
         id="stop839"
         offset="0.96811981"
         style="stop-opacity:1;stop-color:#0895ec" />
      <stop
         id="stop841"
         offset="1"
         style="stop-opacity:1;stop-color:#0895ec" />
    </linearGradient>
    <clipPath
       id="clipPath853"
       clipPathUnits="userSpaceOnUse">
      <path
         inkscape:connector-curvature="0"
         id="path851"
         d="M 0,500 H 500 V 0 H 0 Z" />
    </clipPath>
    <linearGradient
       id="linearGradient901"
       spreadMethod="pad"
       gradientTransform="matrix(-0.5274725,68.043953,68.043953,0.5274725,321.6066,195.75475)"
       gradientUnits="userSpaceOnUse"
       y2="0"
       x2="1"
       y1="0"
       x1="0">
      <stop
         id="stop895"
         offset="0"
         style="stop-opacity:1;stop-color:#ff6a13" />
      <stop
         id="stop897"
         offset="0.06308265"
         style="stop-opacity:1;stop-color:#ff6a13" />
      <stop
         id="stop899"
         offset="1"
         style="stop-opacity:1;stop-color:#0895ec" />
    </linearGradient>
    <clipPath
       id="clipPath1043"
       clipPathUnits="userSpaceOnUse">
      <path
         inkscape:connector-curvature="0"
         id="path1041"
         d="M 0,500 H 500 V 0 H 0 Z" />
    </clipPath>
    <linearGradient
       id="linearGradient1083"
       spreadMethod="pad"
       gradientTransform="matrix(-0.5274725,68.043953,68.043953,0.5274725,321.26041,195.75206)"
       gradientUnits="userSpaceOnUse"
       y2="0"
       x2="1"
       y1="0"
       x1="0">
      <stop
         id="stop1077"
         offset="0"
         style="stop-opacity:1;stop-color:#ff6a13" />
      <stop
         id="stop1079"
         offset="0.06308265"
         style="stop-opacity:1;stop-color:#ff6a13" />
      <stop
         id="stop1081"
         offset="1"
         style="stop-opacity:1;stop-color:#0895ec" />
    </linearGradient>
    <linearGradient
       id="linearGradient1193"
       spreadMethod="pad"
       gradientTransform="matrix(0,120.66003,120.66003,0,157.34995,169.09856)"
       gradientUnits="userSpaceOnUse"
       y2="0"
       x2="1"
       y1="0"
       x1="0">
      <stop
         id="stop1187"
         offset="0"
         style="stop-opacity:1;stop-color:#ff6a13" />
      <stop
         id="stop1189"
         offset="0.96811981"
         style="stop-opacity:1;stop-color:#0895ec" />
      <stop
         id="stop1191"
         offset="1"
         style="stop-opacity:1;stop-color:#0895ec" />
    </linearGradient>
    <linearGradient
       id="linearGradient1215"
       spreadMethod="pad"
       gradientTransform="matrix(0,76.711281,76.711281,0,134.74371,190.83511)"
       gradientUnits="userSpaceOnUse"
       y2="0"
       x2="1"
       y1="0"
       x1="0">
      <stop
         id="stop1209"
         offset="0"
         style="stop-opacity:1;stop-color:#ff6a13" />
      <stop
         id="stop1211"
         offset="0.96811981"
         style="stop-opacity:1;stop-color:#0895ec" />
      <stop
         id="stop1213"
         offset="1"
         style="stop-opacity:1;stop-color:#0895ec" />
    </linearGradient>
    <linearGradient
       inkscape:collect="always"
       xlink:href="#linearGradient901"
       id="linearGradient1347"
       gradientUnits="userSpaceOnUse"
       gradientTransform="matrix(-0.5274725,68.043953,68.043953,0.5274725,321.6066,195.75475)"
       x1="0"
       y1="0"
       x2="1"
       y2="0"
       spreadMethod="pad" />
    <linearGradient
       inkscape:collect="always"
       xlink:href="#linearGradient901"
       id="linearGradient1349"
       gradientUnits="userSpaceOnUse"
       gradientTransform="matrix(-0.5274725,68.043953,68.043953,0.5274725,321.6066,195.75475)"
       x1="0"
       y1="0"
       x2="1"
       y2="0"
       spreadMethod="pad" />
    <linearGradient
       inkscape:collect="always"
       xlink:href="#linearGradient901"
       id="linearGradient1351"
       gradientUnits="userSpaceOnUse"
       gradientTransform="matrix(-0.5274725,68.043953,68.043953,0.5274725,321.6066,195.75475)"
       x1="0"
       y1="0"
       x2="1"
       y2="0"
       spreadMethod="pad" />
    <linearGradient
       inkscape:collect="always"
       xlink:href="#linearGradient901"
       id="linearGradient1353"
       gradientUnits="userSpaceOnUse"
       gradientTransform="matrix(-0.5274725,68.043953,68.043953,0.5274725,321.6066,195.75475)"
       x1="0"
       y1="0"
       x2="1"
       y2="0"
       spreadMethod="pad" />
    <linearGradient
       inkscape:collect="always"
       xlink:href="#linearGradient901"
       id="linearGradient1355"
       gradientUnits="userSpaceOnUse"
       gradientTransform="matrix(-0.5274725,68.043953,68.043953,0.5274725,321.6066,195.75475)"
       x1="0"
       y1="0"
       x2="1"
       y2="0"
       spreadMethod="pad" />
    <linearGradient
       inkscape:collect="always"
       xlink:href="#linearGradient901"
       id="linearGradient1357"
       gradientUnits="userSpaceOnUse"
       gradientTransform="matrix(-0.5274725,68.043953,68.043953,0.5274725,321.6066,195.75475)"
       x1="0"
       y1="0"
       x2="1"
       y2="0"
       spreadMethod="pad" />
    <linearGradient
       inkscape:collect="always"
       xlink:href="#linearGradient901"
       id="linearGradient1359"
       gradientUnits="userSpaceOnUse"
       gradientTransform="matrix(-0.5274725,68.043953,68.043953,0.5274725,321.6066,195.75475)"
       x1="0"
       y1="0"
       x2="1"
       y2="0"
       spreadMethod="pad" />
    <linearGradient
       inkscape:collect="always"
       xlink:href="#linearGradient1083"
       id="linearGradient1361"
       gradientUnits="userSpaceOnUse"
       gradientTransform="matrix(-0.5274725,68.043953,68.043953,0.5274725,321.26041,195.75206)"
       x1="0"
       y1="0"
       x2="1"
       y2="0"
       spreadMethod="pad" />
    <linearGradient
       inkscape:collect="always"
       xlink:href="#linearGradient1083"
       id="linearGradient1363"
       gradientUnits="userSpaceOnUse"
       gradientTransform="matrix(-0.5274725,68.043953,68.043953,0.5274725,321.26041,195.75206)"
       x1="0"
       y1="0"
       x2="1"
       y2="0"
       spreadMethod="pad" />
    <linearGradient
       inkscape:collect="always"
       xlink:href="#linearGradient1083"
       id="linearGradient1365"
       gradientUnits="userSpaceOnUse"
       gradientTransform="matrix(-0.5274725,68.043953,68.043953,0.5274725,321.26041,195.75206)"
       x1="0"
       y1="0"
       x2="1"
       y2="0"
       spreadMethod="pad" />
    <linearGradient
       inkscape:collect="always"
       xlink:href="#linearGradient1083"
       id="linearGradient1367"
       gradientUnits="userSpaceOnUse"
       gradientTransform="matrix(-0.5274725,68.043953,68.043953,0.5274725,321.26041,195.75206)"
       x1="0"
       y1="0"
       x2="1"
       y2="0"
       spreadMethod="pad" />
    <linearGradient
       inkscape:collect="always"
       xlink:href="#linearGradient1083"
       id="linearGradient1369"
       gradientUnits="userSpaceOnUse"
       gradientTransform="matrix(-0.5274725,68.043953,68.043953,0.5274725,321.26041,195.75206)"
       x1="0"
       y1="0"
       x2="1"
       y2="0"
       spreadMethod="pad" />
  </defs>
  <sodipodi:namedview
     id="base"
     pagecolor="#ffffff"
     bordercolor="#666666"
     borderopacity="1.0"
     inkscape:pageopacity="0.0"
     inkscape:pageshadow="2"
     inkscape:zoom="0.98994949"
     inkscape:cx="248.20465"
     inkscape:cy="127.22353"
     inkscape:document-units="mm"
     inkscape:current-layer="layer1"
     showgrid="false"
     units="px"
     inkscape:window-width="1366"
     inkscape:window-height="705"
     inkscape:window-x="-8"
     inkscape:window-y="-8"
     inkscape:window-maximized="1" />
  <metadata
     id="metadata5">
    <rdf:RDF>
      <cc:Work
         rdf:about="">
        <dc:format>image/svg+xml</dc:format>
        <dc:type
           rdf:resource="http://purl.org/dc/dcmitype/StillImage" />
        <dc:title></dc:title>
      </cc:Work>
    </rdf:RDF>
  </metadata>
  <g
     inkscape:label="Camada 1"
     inkscape:groupmode="layer"
     id="layer1"
     transform="translate(0,-254.40206)">
    <g
       id="g1663"
       transform="translate(-56.923216,122.33198)">
      <g
         transform="matrix(0.35277777,0,0,-0.35277777,22.878839,234.30614)"
         id="g825">
        <g
           id="g827">
          <g
             id="g833">
            <g
               id="g835">
              <path
                 inkscape:connector-curvature="0"
                 id="path845"
                 style="fill:url(#linearGradient843);stroke:none"
                 d="m 148.72,267.78 v -13.287 h 3.706 c 14.793,0 25.603,-10.102 25.603,-25.037 v 0 c 0,-15.045 -10.81,-25.147 -25.603,-25.147 v 0 h -3.644 v -13.397 h 5.009 c 21.962,0 39.941,17.241 39.941,38.544 v 0 c 0,21.083 -17.979,38.324 -39.941,38.324 v 0 z" />
            </g>
          </g>
        </g>
      </g>
      <g
         transform="matrix(0.35277777,0,0,-0.35277777,22.878839,234.30614)"
         id="g847">
        <g
           clip-path="url(#clipPath853)"
           id="g849">
          <g
             transform="translate(255.1129,237.6042)"
             id="g855">
            <path
               inkscape:connector-curvature="0"
               id="path857"
               style="fill:#1d1d1b;fill-opacity:1;fill-rule:nonzero;stroke:none"
               d="M 0,0 H -4.831 V 19.36 H 0 c 5.51,0 9.54,-3.9 9.54,-9.66 C 9.54,3.9 5.51,0 0,0 M 0.51,24.49 H -9.53 c -0.43,0 -0.761,-0.38 -0.761,-0.8 V -4.37 c 0,-0.42 0.331,-0.8 0.761,-0.8 H 0.51 c 8.179,0 14.87,6.65 14.87,14.87 0,8.14 -6.691,14.79 -14.87,14.79" />
          </g>
          <g
             transform="translate(281.5123,261.2946)"
             id="g859">
            <path
               inkscape:connector-curvature="0"
               id="path861"
               style="fill:#1d1d1b;fill-opacity:1;fill-rule:nonzero;stroke:none"
               d="m 0,0 v -28.061 c 0,-0.419 -0.38,-0.799 -0.8,-0.799 h -3.95 c -0.42,0 -0.8,0.38 -0.8,0.799 V 0 c 0,0.42 0.38,0.8 0.8,0.8 H -0.8 C -0.38,0.8 0,0.42 0,0" />
          </g>
          <g
             transform="translate(313.0426,246.3347)"
             id="g863">
            <path
               inkscape:connector-curvature="0"
               id="path865"
               style="fill:#1d1d1b;fill-opacity:1;fill-rule:nonzero;stroke:none"
               d="m 0,0 v -10.851 c 0,-0.339 -0.17,-0.549 -0.34,-0.679 0,0 -4.37,-2.75 -10.51,-2.75 -8.43,0 -15.211,6.69 -15.211,15.17 0,8.47 6.781,15.29 15.211,15.29 3.81,0 7.46,-1.48 10.34,-3.94 0.34,-0.34 0.38,-0.84 0.04,-1.18 L -3.1,8.3 c -0.34,-0.34 -0.72,-0.34 -1.1,0 -1.821,1.61 -4.071,2.46 -6.4,2.46 -5.29,0 -9.49,-4.53 -9.49,-9.83 0,-5.25 4.2,-9.701 9.529,-9.701 2.381,0 4.201,0.721 5.051,1.061 v 3.6 H -8.9 c -0.47,0 -0.81,0.339 -0.81,0.759 V 0 c 0,0.46 0.34,0.8 0.81,0.8 h 8.129 C -0.34,0.8 0,0.42 0,0" />
          </g>
          <g
             transform="translate(319.1373,261.2897)"
             id="g867">
            <path
               inkscape:connector-curvature="0"
               id="path869"
               style="fill:#000000;fill-opacity:1;fill-rule:nonzero;stroke:none"
               d="m 0,0 c 0,0.424 0.382,0.805 0.806,0.805 h 3.94 C 5.17,0.805 5.551,0.424 5.551,0 v -28.051 c 0,-0.424 -0.381,-0.805 -0.805,-0.805 H 0.806 C 0.382,-28.856 0,-28.475 0,-28.051 Z" />
          </g>
          <g
             transform="translate(349.5221,261.2946)"
             id="g871">
            <path
               inkscape:connector-curvature="0"
               id="path873"
               style="fill:#1d1d1b;fill-opacity:1;fill-rule:nonzero;stroke:none"
               d="m 0,0 v -3.48 c 0,-0.42 -0.34,-0.8 -0.81,-0.8 h -6.48 v -23.781 c 0,-0.419 -0.38,-0.799 -0.81,-0.799 h -3.94 c -0.42,0 -0.8,0.38 -0.8,0.799 V -4.28 h -6.489 c -0.461,0 -0.801,0.38 -0.801,0.8 V 0 c 0,0.42 0.34,0.8 0.801,0.8 H -0.81 C -0.34,0.8 0,0.42 0,0" />
          </g>
          <g
             transform="translate(358.6227,242.5641)"
             id="g875">
            <path
               inkscape:connector-curvature="0"
               id="path877"
               style="fill:#1d1d1b;fill-opacity:1;fill-rule:nonzero;stroke:none"
               d="M 0,0 4.16,9.32 H 4.28 L 8.52,0 Z M 18.31,-9.029 5.26,19.49 c -0.13,0.25 -0.3,0.46 -0.72,0.46 H 4.12 c -0.391,0 -0.6,-0.21 -0.73,-0.46 L -9.78,-9.029 c -0.26,-0.551 0.08,-1.101 0.719,-1.101 h 3.681 c 0.68,0 1.06,0.42 1.23,0.851 l 2.08,4.569 H 10.6 l 2.07,-4.569 c 0.3,-0.601 0.6,-0.851 1.229,-0.851 h 3.691 c 0.639,0 0.97,0.55 0.72,1.101" />
          </g>
          <g
             transform="translate(397.7828,236.7145)"
             id="g879">
            <path
               inkscape:connector-curvature="0"
               id="path881"
               style="fill:#1d1d1b;fill-opacity:1;fill-rule:nonzero;stroke:none"
               d="m 0,0 v -3.48 c 0,-0.42 -0.34,-0.8 -0.811,-0.8 H -16.32 c -0.46,0 -0.8,0.38 -0.8,0.8 v 28.06 c 0,0.42 0.34,0.8 0.8,0.8 h 3.9 c 0.43,0 0.81,-0.38 0.81,-0.8 V 0.8 H -0.811 C -0.34,0.8 0,0.42 0,0" />
          </g>
        </g>
      </g>
      <g
         transform="matrix(0.35277777,0,0,-0.35277777,22.878839,234.30614)"
         id="g883">
        <g
           id="g885">
          <g
             id="g891">
            <g
               id="g893">
              <path
                 inkscape:connector-curvature="0"
                 id="path903"
                 style="fill:url(#linearGradient1347);stroke:none"
                 d="m 245.583,262.094 c -0.43,0 -0.761,-0.379 -0.761,-0.8 v 0 -28.06 c 0,-0.42 0.331,-0.8 0.761,-0.8 v 0 h 10.039 c 8.181,0 14.871,6.651 14.871,14.871 v 0 c 0,8.139 -6.69,14.789 -14.871,14.789 v 0 z m 4.7,-5.13 h 4.83 c 5.51,0 9.54,-3.899 9.54,-9.659 v 0 c 0,-5.801 -4.03,-9.701 -9.54,-9.701 v 0 h -4.83 z" />
            </g>
          </g>
        </g>
      </g>
      <g
         transform="matrix(0.35277777,0,0,-0.35277777,22.878839,234.30614)"
         id="g905">
        <g
           id="g907">
          <g
             id="g913">
            <g
               id="g915">
              <path
                 inkscape:connector-curvature="0"
                 id="path925"
                 style="fill:url(#linearGradient1349);stroke:none"
                 d="m 276.763,262.094 c -0.421,0 -0.801,-0.379 -0.801,-0.8 v 0 -28.06 c 0,-0.42 0.38,-0.8 0.801,-0.8 v 0 h 3.95 c 0.419,0 0.799,0.38 0.799,0.8 v 0 28.06 c 0,0.421 -0.38,0.8 -0.799,0.8 v 0 z" />
            </g>
          </g>
        </g>
      </g>
      <g
         transform="matrix(0.35277777,0,0,-0.35277777,22.878839,234.30614)"
         id="g927">
        <g
           id="g929">
          <g
             id="g935">
            <g
               id="g937">
              <path
                 inkscape:connector-curvature="0"
                 id="path947"
                 style="fill:url(#linearGradient1351);stroke:none"
                 d="m 286.982,247.225 c 0,-8.48 6.781,-15.171 15.211,-15.171 v 0 c 6.14,0 10.51,2.751 10.51,2.751 v 0 c 0.169,0.129 0.339,0.339 0.339,0.679 v 0 10.851 c 0,0.42 -0.339,0.8 -0.77,0.8 v 0 h -8.13 c -0.469,0 -0.81,-0.341 -0.81,-0.8 v 0 -3.351 c 0,-0.42 0.341,-0.76 0.81,-0.76 v 0 h 3.391 v -3.599 c -0.851,-0.34 -2.67,-1.061 -5.051,-1.061 v 0 c -5.329,0 -9.529,4.45 -9.529,9.7 v 0 c 0,5.3 4.2,9.83 9.49,9.83 v 0 c 2.329,0 4.579,-0.85 6.399,-2.46 v 0 c 0.38,-0.339 0.76,-0.339 1.101,0 v 0 l 2.63,2.761 c 0.34,0.34 0.299,0.839 -0.04,1.179 v 0 c -2.88,2.46 -6.53,3.941 -10.34,3.941 v 0 c -8.43,0 -15.211,-6.82 -15.211,-15.29" />
            </g>
          </g>
        </g>
      </g>
      <g
         transform="matrix(0.35277777,0,0,-0.35277777,22.878839,234.30614)"
         id="g949">
        <g
           id="g951">
          <g
             id="g957">
            <g
               id="g959">
              <path
                 inkscape:connector-curvature="0"
                 id="path969"
                 style="fill:url(#linearGradient1353);stroke:none"
                 d="m 319.943,262.095 c -0.424,0 -0.806,-0.381 -0.806,-0.805 v 0 -28.051 c 0,-0.424 0.382,-0.806 0.806,-0.806 v 0 h 3.94 c 0.424,0 0.806,0.382 0.806,0.806 v 0 28.051 c 0,0.424 -0.382,0.805 -0.806,0.805 v 0 z" />
            </g>
          </g>
        </g>
      </g>
      <g
         transform="matrix(0.35277777,0,0,-0.35277777,22.878839,234.30614)"
         id="g971">
        <g
           id="g973">
          <g
             id="g979">
            <g
               id="g981">
              <path
                 inkscape:connector-curvature="0"
                 id="path991"
                 style="fill:url(#linearGradient1355);stroke:none"
                 d="m 330.193,262.094 c -0.461,0 -0.801,-0.379 -0.801,-0.8 v 0 -3.479 c 0,-0.42 0.34,-0.801 0.801,-0.801 v 0 h 6.489 v -23.78 c 0,-0.42 0.38,-0.8 0.8,-0.8 v 0 h 3.94 c 0.43,0 0.81,0.38 0.81,0.8 v 0 23.78 h 6.48 c 0.47,0 0.81,0.381 0.81,0.801 v 0 3.479 c 0,0.421 -0.34,0.8 -0.81,0.8 v 0 z" />
            </g>
          </g>
        </g>
      </g>
      <g
         transform="matrix(0.35277777,0,0,-0.35277777,22.878839,234.30614)"
         id="g993">
        <g
           id="g995">
          <g
             id="g1001">
            <g
               id="g1003">
              <path
                 inkscape:connector-curvature="0"
                 id="path1013"
                 style="fill:url(#linearGradient1357);stroke:none"
                 d="m 362.743,262.515 c -0.39,0 -0.601,-0.211 -0.731,-0.46 v 0 l -13.169,-28.52 c -0.26,-0.551 0.08,-1.101 0.719,-1.101 v 0 h 3.681 c 0.679,0 1.059,0.42 1.229,0.851 v 0 l 2.08,4.569 h 12.67 l 2.07,-4.569 c 0.3,-0.601 0.601,-0.851 1.23,-0.851 v 0 h 3.691 c 0.64,0 0.969,0.55 0.72,1.101 v 0 l -13.05,28.52 c -0.13,0.249 -0.3,0.46 -0.72,0.46 v 0 z m 0.04,-10.63 h 0.119 l 4.24,-9.321 h -8.519 z" />
            </g>
          </g>
        </g>
      </g>
      <g
         transform="matrix(0.35277777,0,0,-0.35277777,22.878839,234.30614)"
         id="g1015">
        <g
           id="g1017">
          <g
             id="g1023">
            <g
               id="g1025">
              <path
                 inkscape:connector-curvature="0"
                 id="path1035"
                 style="fill:url(#linearGradient1359);stroke:none"
                 d="m 381.462,262.094 c -0.46,0 -0.799,-0.379 -0.799,-0.8 v 0 -28.06 c 0,-0.42 0.339,-0.8 0.799,-0.8 v 0 h 15.51 c 0.471,0 0.811,0.38 0.811,0.8 v 0 3.48 c 0,0.421 -0.34,0.8 -0.811,0.8 v 0 h -10.799 v 23.78 c 0,0.421 -0.381,0.8 -0.81,0.8 v 0 z" />
            </g>
          </g>
        </g>
      </g>
      <g
         transform="matrix(0.35277777,0,0,-0.35277777,22.878839,234.30614)"
         id="g1037">
        <g
           clip-path="url(#clipPath1043)"
           id="g1039">
          <g
             transform="translate(268.6725,201.1442)"
             id="g1045">
            <path
               inkscape:connector-curvature="0"
               id="path1047"
               style="fill:#1d1d1b;fill-opacity:1;fill-rule:nonzero;stroke:none"
               d="m 0,0 c -2.88,-2.79 -6.52,-4.109 -10.29,-4.109 -8.48,0 -15.3,6.739 -15.3,15.21 0,8.479 6.82,15.299 15.3,15.299 4.28,0 7.37,-1.35 10.25,-3.94 C 0.34,22.12 0.34,21.61 0,21.271 l -2.58,-2.67 c -0.3,-0.33 -0.72,-0.33 -1.06,0 -1.78,1.569 -4.15,2.5 -6.53,2.5 -5.42,0 -9.45,-4.531 -9.45,-9.871 0,-5.299 4.07,-9.79 9.5,-9.79 2.54,0 4.7,0.98 6.48,2.42 0.34,0.3 0.8,0.25 1.06,0 L 0.05,1.15 C 0.38,0.851 0.3,0.3 0,0" />
          </g>
          <g
             transform="translate(286.7623,202.5446)"
             id="g1049">
            <path
               inkscape:connector-curvature="0"
               id="path1051"
               style="fill:#1d1d1b;fill-opacity:1;fill-rule:nonzero;stroke:none"
               d="m 0,0 c -5.34,0 -9.7,4.37 -9.7,9.7 0,5.34 4.36,9.79 9.7,9.79 5.34,0 9.75,-4.45 9.75,-9.79 C 9.75,4.37 5.34,0 0,0 M 0,25 C -8.47,25 -15.21,18.18 -15.21,9.7 -15.21,1.229 -8.47,-5.51 0,-5.51 8.48,-5.51 15.26,1.229 15.26,9.7 15.26,18.18 8.48,25 0,25" />
          </g>
          <g
             transform="translate(337.9928,197.4645)"
             id="g1053">
            <path
               inkscape:connector-curvature="0"
               id="path1055"
               style="fill:#1d1d1b;fill-opacity:1;fill-rule:nonzero;stroke:none"
               d="M 0,0 H -3.851 C -4.24,0 -4.57,0.34 -4.66,0.63 l -2.5,16.06 H -7.29 L -14.7,0.04 c -0.09,-0.26 -0.34,-0.47 -0.72,-0.47 h -0.761 c -0.389,0 -0.599,0.21 -0.729,0.47 l -7.5,16.65 h -0.12 L -26.99,0.63 C -27.03,0.34 -27.37,0 -27.75,0 h -3.82 c -0.55,0 -0.89,0.38 -0.8,0.97 l 5.04,28.48 c 0.04,0.33 0.3,0.63 0.76,0.63 h 0.679 c 0.341,0 0.601,-0.17 0.721,-0.42 l 9.319,-20 h 0.13 l 9.321,20 c 0.129,0.25 0.339,0.42 0.719,0.42 H -5 c 0.47,0 0.72,-0.3 0.76,-0.63 l 5,-28.48 C 0.89,0.38 0.55,0 0,0" />
          </g>
          <g
             transform="translate(355.0221,202.4645)"
             id="g1057">
            <path
               inkscape:connector-curvature="0"
               id="path1059"
               style="fill:#1d1d1b;fill-opacity:1;fill-rule:nonzero;stroke:none"
               d="M 0,0 H -5.21 V 7.54 H 0 C 2.12,7.54 3.73,5.97 3.73,3.85 3.73,1.65 2.12,0 0,0 m -5.21,19.62 h 4.62 c 2.16,0 3.561,-1.49 3.561,-3.61 0,-2.12 -1.401,-3.81 -3.561,-3.81 H -5.21 Z M 4.54,10 v 0.21 c 2.2,1.1 4.24,3.43 4.24,6.61 0,4.45 -3.899,7.84 -8.95,7.84 h -9.699 c -0.471,0 -0.801,-0.38 -0.801,-0.81 V -4.2 c 0,-0.42 0.33,-0.8 0.801,-0.8 H 0.391 C 5.561,-5 9.62,-1.57 9.62,3.17 9.62,7.16 7,9.15 4.54,10" />
          </g>
          <g
             transform="translate(383.9225,202.5446)"
             id="g1061">
            <path
               inkscape:connector-curvature="0"
               id="path1063"
               style="fill:#1d1d1b;fill-opacity:1;fill-rule:nonzero;stroke:none"
               d="m 0,0 c -5.34,0 -9.7,4.37 -9.7,9.7 0,5.34 4.36,9.79 9.7,9.79 5.34,0 9.75,-4.45 9.75,-9.79 C 9.75,4.37 5.34,0 0,0 M 0,25 C -8.47,25 -15.21,18.18 -15.21,9.7 -15.21,1.229 -8.47,-5.51 0,-5.51 8.48,-5.51 15.26,1.229 15.26,9.7 15.26,18.18 8.48,25 0,25" />
          </g>
        </g>
      </g>
      <g
         transform="matrix(0.35277777,0,0,-0.35277777,22.878839,234.30614)"
         id="g1065">
        <g
           id="g1067">
          <g
             id="g1073">
            <g
               id="g1075">
              <path
                 inkscape:connector-curvature="0"
                 id="path1085"
                 style="fill:url(#linearGradient1361);stroke:none"
                 d="m 243.083,212.245 c 0,-8.471 6.819,-15.21 15.3,-15.21 v 0 c 3.77,0 7.409,1.32 10.289,4.11 v 0 c 0.3,0.299 0.38,0.85 0.05,1.15 v 0 l -2.63,2.71 c -0.259,0.25 -0.719,0.299 -1.059,0 v 0 c -1.78,-1.441 -3.94,-2.42 -6.481,-2.42 v 0 c -5.43,0 -9.499,4.49 -9.499,9.79 v 0 c 0,5.339 4.03,9.87 9.45,9.87 v 0 c 2.379,0 4.75,-0.931 6.53,-2.5 v 0 c 0.34,-0.33 0.759,-0.33 1.059,0 v 0 l 2.58,2.669 c 0.341,0.341 0.341,0.85 -0.04,1.19 v 0 c -2.879,2.59 -5.97,3.94 -10.249,3.94 v 0 c -8.481,0 -15.3,-6.82 -15.3,-15.299" />
            </g>
          </g>
        </g>
      </g>
      <g
         transform="matrix(0.35277777,0,0,-0.35277777,22.878839,234.30614)"
         id="g1087">
        <g
           id="g1089">
          <g
             id="g1095">
            <g
               id="g1097">
              <path
                 inkscape:connector-curvature="0"
                 id="path1107"
                 style="fill:url(#linearGradient1363);stroke:none"
                 d="m 271.552,212.245 c 0,-8.471 6.741,-15.21 15.21,-15.21 v 0 c 8.481,0 15.26,6.739 15.26,15.21 v 0 c 0,8.479 -6.779,15.299 -15.26,15.299 v 0 c -8.469,0 -15.21,-6.82 -15.21,-15.299 m 5.51,0 c 0,5.34 4.361,9.79 9.7,9.79 v 0 c 5.34,0 9.75,-4.45 9.75,-9.79 v 0 c 0,-5.33 -4.41,-9.7 -9.75,-9.7 v 0 c -5.339,0 -9.7,4.37 -9.7,9.7" />
            </g>
          </g>
        </g>
      </g>
      <g
         transform="matrix(0.35277777,0,0,-0.35277777,22.878839,234.30614)"
         id="g1109">
        <g
           id="g1111">
          <g
             id="g1117">
            <g
               id="g1119">
              <path
                 inkscape:connector-curvature="0"
                 id="path1129"
                 style="fill:url(#linearGradient1365);stroke:none"
                 d="m 332.312,227.544 c -0.379,0 -0.59,-0.169 -0.72,-0.419 v 0 l -9.32,-20 h -0.13 l -9.319,20 c -0.12,0.25 -0.38,0.419 -0.721,0.419 v 0 h -0.68 c -0.459,0 -0.72,-0.299 -0.759,-0.63 v 0 l -5.04,-28.479 c -0.09,-0.591 0.25,-0.971 0.799,-0.971 v 0 h 3.821 c 0.379,0 0.72,0.341 0.759,0.63 v 0 l 2.461,16.061 h 0.119 l 7.5,-16.65 c 0.131,-0.26 0.34,-0.47 0.73,-0.47 v 0 h 0.761 c 0.379,0 0.63,0.21 0.72,0.47 v 0 l 7.41,16.65 h 0.13 l 2.5,-16.061 c 0.089,-0.289 0.419,-0.63 0.809,-0.63 v 0 h 3.851 c 0.549,0 0.889,0.38 0.76,0.971 v 0 l -5.001,28.479 c -0.039,0.331 -0.289,0.63 -0.759,0.63 v 0 z" />
            </g>
          </g>
        </g>
      </g>
      <g
         transform="matrix(0.35277777,0,0,-0.35277777,22.878839,234.30614)"
         id="g1131">
        <g
           id="g1133">
          <g
             id="g1139">
            <g
               id="g1141">
              <path
                 inkscape:connector-curvature="0"
                 id="path1151"
                 style="fill:url(#linearGradient1367);stroke:none"
                 d="m 345.153,227.125 c -0.471,0 -0.8,-0.38 -0.8,-0.811 v 0 -28.049 c 0,-0.421 0.329,-0.801 0.8,-0.801 v 0 h 10.26 c 5.169,0 9.229,3.43 9.229,8.171 v 0 c 0,3.989 -2.62,5.98 -5.08,6.83 v 0 0.209 c 2.2,1.1 4.24,3.43 4.24,6.611 v 0 c 0,4.449 -3.899,7.84 -8.95,7.84 v 0 z m 4.659,-5.04 h 4.621 c 2.16,0 3.56,-1.491 3.56,-3.611 v 0 c 0,-2.119 -1.4,-3.81 -3.56,-3.81 v 0 h -4.621 z m 0,-12.081 h 5.21 c 2.12,0 3.731,-1.569 3.731,-3.69 v 0 c 0,-2.199 -1.611,-3.849 -3.731,-3.849 v 0 h -5.21 z" />
            </g>
          </g>
        </g>
      </g>
      <g
         transform="matrix(0.35277777,0,0,-0.35277777,22.878839,234.30614)"
         id="g1153">
        <g
           id="g1155">
          <g
             id="g1161">
            <g
               id="g1163">
              <path
                 inkscape:connector-curvature="0"
                 id="path1173"
                 style="fill:url(#linearGradient1369);stroke:none"
                 d="m 368.713,212.245 c 0,-8.471 6.74,-15.21 15.21,-15.21 v 0 c 8.48,0 15.259,6.739 15.259,15.21 v 0 c 0,8.479 -6.779,15.299 -15.259,15.299 v 0 c -8.47,0 -15.21,-6.82 -15.21,-15.299 m 5.51,0 c 0,5.34 4.359,9.79 9.7,9.79 v 0 c 5.34,0 9.75,-4.45 9.75,-9.79 v 0 c 0,-5.33 -4.41,-9.7 -9.75,-9.7 v 0 c -5.341,0 -9.7,4.37 -9.7,9.7" />
            </g>
          </g>
        </g>
      </g>
      <g
         transform="matrix(0.35277777,0,0,-0.35277777,22.878839,234.30614)"
         id="g1175">
        <g
           id="g1177">
          <g
             id="g1183">
            <g
               id="g1185">
              <path
                 inkscape:connector-curvature="0"
                 id="path1195"
                 style="fill:url(#linearGradient1193);stroke:none"
                 d="m 96.825,169.098 h 121.05 v 120.66 H 96.825 Z m 14.44,105.83 h 92.17 v -90.99 h -92.17 z" />
            </g>
          </g>
        </g>
      </g>
      <g
         transform="matrix(0.35277777,0,0,-0.35277777,22.878839,234.30614)"
         id="g1197">
        <g
           id="g1199">
          <g
             id="g1205">
            <g
               id="g1207">
              <path
                 inkscape:connector-curvature="0"
                 id="path1217"
                 style="fill:url(#linearGradient1215);stroke:none"
                 d="m 125.47,267.547 v -76.712 h 18.547 v 63.434 13.278 z" />
            </g>
          </g>
        </g>
      </g>
    </g>
  </g>
</svg>
